<mxfile host="app.diagrams.net" modified="2023-03-07T13:20:38.185Z" agent="5.0 (Macintosh; Intel Mac OS X 10_15_7) AppleWebKit/537.36 (KHTML, like Gecko) Chrome/110.0.0.0 Safari/537.36" etag="Mwa7um00PFWkXIAPXPsg" version="20.8.21" type="github">
  <diagram id="C5RBs43oDa-KdzZeNtuy" name="Page-1">
    <mxGraphModel dx="954" dy="566" grid="1" gridSize="10" guides="1" tooltips="1" connect="1" arrows="1" fold="1" page="1" pageScale="1" pageWidth="827" pageHeight="1169" math="0" shadow="0">
      <root>
        <mxCell id="WIyWlLk6GJQsqaUBKTNV-0" />
        <mxCell id="WIyWlLk6GJQsqaUBKTNV-1" parent="WIyWlLk6GJQsqaUBKTNV-0" />
        <mxCell id="NFUYtC_mD7zzvTQgRDWZ-19" value="" style="rounded=0;whiteSpace=wrap;html=1;dashed=1;" vertex="1" parent="WIyWlLk6GJQsqaUBKTNV-1">
          <mxGeometry x="590" y="240" width="130" height="320" as="geometry" />
        </mxCell>
        <mxCell id="NFUYtC_mD7zzvTQgRDWZ-18" value="" style="rounded=0;whiteSpace=wrap;html=1;dashed=1;" vertex="1" parent="WIyWlLk6GJQsqaUBKTNV-1">
          <mxGeometry x="40" y="240" width="470" height="320" as="geometry" />
        </mxCell>
        <mxCell id="NFUYtC_mD7zzvTQgRDWZ-22" style="edgeStyle=orthogonalEdgeStyle;rounded=0;orthogonalLoop=1;jettySize=auto;html=1;entryX=0.547;entryY=1.075;entryDx=0;entryDy=0;entryPerimeter=0;" edge="1" parent="WIyWlLk6GJQsqaUBKTNV-1" target="NFUYtC_mD7zzvTQgRDWZ-2">
          <mxGeometry relative="1" as="geometry">
            <mxPoint x="468" y="280" as="sourcePoint" />
            <mxPoint x="448" y="213" as="targetPoint" />
            <Array as="points">
              <mxPoint x="448" y="280" />
            </Array>
          </mxGeometry>
        </mxCell>
        <mxCell id="NFUYtC_mD7zzvTQgRDWZ-24" value="认证" style="edgeLabel;html=1;align=center;verticalAlign=middle;resizable=0;points=[];" vertex="1" connectable="0" parent="NFUYtC_mD7zzvTQgRDWZ-22">
          <mxGeometry x="0.4023" y="2" relative="1" as="geometry">
            <mxPoint as="offset" />
          </mxGeometry>
        </mxCell>
        <mxCell id="NFUYtC_mD7zzvTQgRDWZ-25" value="" style="edgeStyle=orthogonalEdgeStyle;rounded=0;orthogonalLoop=1;jettySize=auto;html=1;dashed=1;dashPattern=8 8;" edge="1" parent="WIyWlLk6GJQsqaUBKTNV-1" source="WIyWlLk6GJQsqaUBKTNV-3" target="WIyWlLk6GJQsqaUBKTNV-7">
          <mxGeometry relative="1" as="geometry" />
        </mxCell>
        <mxCell id="WIyWlLk6GJQsqaUBKTNV-3" value="认证中心Auth 服务" style="rounded=1;whiteSpace=wrap;html=1;fontSize=12;glass=0;strokeWidth=1;shadow=0;fillColor=#ffe6cc;strokeColor=#d79b00;" parent="WIyWlLk6GJQsqaUBKTNV-1" vertex="1">
          <mxGeometry x="430" y="280" width="65" height="70" as="geometry" />
        </mxCell>
        <mxCell id="NFUYtC_mD7zzvTQgRDWZ-26" style="edgeStyle=orthogonalEdgeStyle;rounded=0;orthogonalLoop=1;jettySize=auto;html=1;exitX=0;exitY=0.75;exitDx=0;exitDy=0;entryX=1;entryY=0.75;entryDx=0;entryDy=0;dashed=1;dashPattern=8 8;" edge="1" parent="WIyWlLk6GJQsqaUBKTNV-1" source="WIyWlLk6GJQsqaUBKTNV-7" target="WIyWlLk6GJQsqaUBKTNV-3">
          <mxGeometry relative="1" as="geometry" />
        </mxCell>
        <mxCell id="WIyWlLk6GJQsqaUBKTNV-7" value="定制服务A" style="rounded=1;whiteSpace=wrap;html=1;fontSize=12;glass=0;strokeWidth=1;shadow=0;" parent="WIyWlLk6GJQsqaUBKTNV-1" vertex="1">
          <mxGeometry x="620" y="295" width="70" height="40" as="geometry" />
        </mxCell>
        <mxCell id="WIyWlLk6GJQsqaUBKTNV-12" value="业务服务A" style="rounded=1;whiteSpace=wrap;html=1;fontSize=12;glass=0;strokeWidth=1;shadow=0;" parent="WIyWlLk6GJQsqaUBKTNV-1" vertex="1">
          <mxGeometry x="160" y="305" width="80" height="40" as="geometry" />
        </mxCell>
        <mxCell id="NFUYtC_mD7zzvTQgRDWZ-0" value="MySql" style="shape=cylinder3;whiteSpace=wrap;html=1;boundedLbl=1;backgroundOutline=1;size=15;" vertex="1" parent="WIyWlLk6GJQsqaUBKTNV-1">
          <mxGeometry x="170" y="485" width="40" height="60" as="geometry" />
        </mxCell>
        <mxCell id="NFUYtC_mD7zzvTQgRDWZ-2" value="网关Gateway" style="rounded=0;whiteSpace=wrap;html=1;" vertex="1" parent="WIyWlLk6GJQsqaUBKTNV-1">
          <mxGeometry x="120" y="150" width="600" height="40" as="geometry" />
        </mxCell>
        <mxCell id="NFUYtC_mD7zzvTQgRDWZ-4" value="业务服务层&lt;br&gt;" style="text;html=1;strokeColor=none;fillColor=none;align=center;verticalAlign=middle;whiteSpace=wrap;rounded=0;" vertex="1" parent="WIyWlLk6GJQsqaUBKTNV-1">
          <mxGeometry x="40" y="310" width="80" height="30" as="geometry" />
        </mxCell>
        <mxCell id="NFUYtC_mD7zzvTQgRDWZ-5" value="基础服务层" style="text;html=1;strokeColor=none;fillColor=none;align=center;verticalAlign=middle;whiteSpace=wrap;rounded=0;" vertex="1" parent="WIyWlLk6GJQsqaUBKTNV-1">
          <mxGeometry x="40" y="415" width="80" height="30" as="geometry" />
        </mxCell>
        <mxCell id="NFUYtC_mD7zzvTQgRDWZ-6" value="LBS层" style="text;html=1;strokeColor=none;fillColor=none;align=center;verticalAlign=middle;whiteSpace=wrap;rounded=0;" vertex="1" parent="WIyWlLk6GJQsqaUBKTNV-1">
          <mxGeometry x="40" y="500" width="80" height="30" as="geometry" />
        </mxCell>
        <mxCell id="NFUYtC_mD7zzvTQgRDWZ-10" value="业务服务B" style="rounded=1;whiteSpace=wrap;html=1;fontSize=12;glass=0;strokeWidth=1;shadow=0;" vertex="1" parent="WIyWlLk6GJQsqaUBKTNV-1">
          <mxGeometry x="250" y="305" width="80" height="40" as="geometry" />
        </mxCell>
        <mxCell id="NFUYtC_mD7zzvTQgRDWZ-11" value="业务服务C" style="rounded=1;whiteSpace=wrap;html=1;fontSize=12;glass=0;strokeWidth=1;shadow=0;" vertex="1" parent="WIyWlLk6GJQsqaUBKTNV-1">
          <mxGeometry x="340" y="305" width="80" height="40" as="geometry" />
        </mxCell>
        <mxCell id="NFUYtC_mD7zzvTQgRDWZ-12" value="定制服务B" style="rounded=1;whiteSpace=wrap;html=1;fontSize=12;glass=0;strokeWidth=1;shadow=0;" vertex="1" parent="WIyWlLk6GJQsqaUBKTNV-1">
          <mxGeometry x="620" y="345" width="70" height="40" as="geometry" />
        </mxCell>
        <mxCell id="NFUYtC_mD7zzvTQgRDWZ-13" value="标准产品 Web 端" style="rounded=1;whiteSpace=wrap;html=1;fontSize=12;glass=0;strokeWidth=1;shadow=0;" vertex="1" parent="WIyWlLk6GJQsqaUBKTNV-1">
          <mxGeometry x="200" y="70" width="120" height="40" as="geometry" />
        </mxCell>
        <mxCell id="NFUYtC_mD7zzvTQgRDWZ-14" value="定制化项目 Web 端" style="rounded=1;whiteSpace=wrap;html=1;fontSize=12;glass=0;strokeWidth=1;shadow=0;" vertex="1" parent="WIyWlLk6GJQsqaUBKTNV-1">
          <mxGeometry x="450" y="70" width="120" height="39" as="geometry" />
        </mxCell>
        <mxCell id="NFUYtC_mD7zzvTQgRDWZ-15" value="Redis" style="shape=cylinder3;whiteSpace=wrap;html=1;boundedLbl=1;backgroundOutline=1;size=15;" vertex="1" parent="WIyWlLk6GJQsqaUBKTNV-1">
          <mxGeometry x="240" y="485" width="40" height="60" as="geometry" />
        </mxCell>
        <mxCell id="NFUYtC_mD7zzvTQgRDWZ-16" value="....&lt;br&gt;" style="shape=cylinder3;whiteSpace=wrap;html=1;boundedLbl=1;backgroundOutline=1;size=15;" vertex="1" parent="WIyWlLk6GJQsqaUBKTNV-1">
          <mxGeometry x="310" y="485" width="40" height="60" as="geometry" />
        </mxCell>
        <mxCell id="NFUYtC_mD7zzvTQgRDWZ-17" value="定制化..." style="rounded=1;whiteSpace=wrap;html=1;fontSize=12;glass=0;strokeWidth=1;shadow=0;" vertex="1" parent="WIyWlLk6GJQsqaUBKTNV-1">
          <mxGeometry x="620" y="400" width="70" height="40" as="geometry" />
        </mxCell>
        <mxCell id="NFUYtC_mD7zzvTQgRDWZ-20" value="网关层" style="text;html=1;strokeColor=none;fillColor=none;align=center;verticalAlign=middle;whiteSpace=wrap;rounded=0;" vertex="1" parent="WIyWlLk6GJQsqaUBKTNV-1">
          <mxGeometry x="40" y="180" width="80" height="30" as="geometry" />
        </mxCell>
        <mxCell id="NFUYtC_mD7zzvTQgRDWZ-23" value="鉴权" style="edgeStyle=orthogonalEdgeStyle;rounded=0;orthogonalLoop=1;jettySize=auto;html=1;entryX=0.583;entryY=1.075;entryDx=0;entryDy=0;entryPerimeter=0;" edge="1" parent="WIyWlLk6GJQsqaUBKTNV-1">
          <mxGeometry relative="1" as="geometry">
            <mxPoint x="490" y="200" as="sourcePoint" />
            <mxPoint x="490" y="277" as="targetPoint" />
          </mxGeometry>
        </mxCell>
        <mxCell id="NFUYtC_mD7zzvTQgRDWZ-29" value="" style="endArrow=classic;startArrow=classic;html=1;rounded=0;dashed=1;dashPattern=8 8;" edge="1" parent="WIyWlLk6GJQsqaUBKTNV-1">
          <mxGeometry width="50" height="50" relative="1" as="geometry">
            <mxPoint x="620" y="240" as="sourcePoint" />
            <mxPoint x="620" y="200" as="targetPoint" />
          </mxGeometry>
        </mxCell>
        <mxCell id="NFUYtC_mD7zzvTQgRDWZ-31" value="" style="endArrow=classic;startArrow=classic;html=1;rounded=0;dashed=1;dashPattern=8 8;entryX=-0.031;entryY=0.609;entryDx=0;entryDy=0;entryPerimeter=0;" edge="1" parent="WIyWlLk6GJQsqaUBKTNV-1" target="NFUYtC_mD7zzvTQgRDWZ-19">
          <mxGeometry width="50" height="50" relative="1" as="geometry">
            <mxPoint x="510" y="435" as="sourcePoint" />
            <mxPoint x="560" y="385" as="targetPoint" />
          </mxGeometry>
        </mxCell>
        <mxCell id="NFUYtC_mD7zzvTQgRDWZ-32" value="API 请求" style="edgeLabel;html=1;align=center;verticalAlign=middle;resizable=0;points=[];" vertex="1" connectable="0" parent="NFUYtC_mD7zzvTQgRDWZ-31">
          <mxGeometry x="-0.0259" y="2" relative="1" as="geometry">
            <mxPoint as="offset" />
          </mxGeometry>
        </mxCell>
        <mxCell id="NFUYtC_mD7zzvTQgRDWZ-33" value="" style="endArrow=classic;startArrow=classic;html=1;rounded=0;dashed=1;dashPattern=8 8;" edge="1" parent="WIyWlLk6GJQsqaUBKTNV-1">
          <mxGeometry width="50" height="50" relative="1" as="geometry">
            <mxPoint x="200" y="405" as="sourcePoint" />
            <mxPoint x="200" y="345" as="targetPoint" />
          </mxGeometry>
        </mxCell>
        <mxCell id="NFUYtC_mD7zzvTQgRDWZ-34" style="edgeStyle=orthogonalEdgeStyle;rounded=0;orthogonalLoop=1;jettySize=auto;html=1;entryX=0.583;entryY=1.075;entryDx=0;entryDy=0;entryPerimeter=0;" edge="1" parent="WIyWlLk6GJQsqaUBKTNV-1">
          <mxGeometry relative="1" as="geometry">
            <mxPoint x="490" y="300" as="sourcePoint" />
            <mxPoint x="490" y="233" as="targetPoint" />
          </mxGeometry>
        </mxCell>
        <mxCell id="NFUYtC_mD7zzvTQgRDWZ-35" value="" style="endArrow=classic;startArrow=classic;html=1;rounded=0;dashed=1;dashPattern=8 8;" edge="1" parent="WIyWlLk6GJQsqaUBKTNV-1">
          <mxGeometry width="50" height="50" relative="1" as="geometry">
            <mxPoint x="289.5" y="405" as="sourcePoint" />
            <mxPoint x="289.5" y="345" as="targetPoint" />
          </mxGeometry>
        </mxCell>
        <mxCell id="NFUYtC_mD7zzvTQgRDWZ-37" value="...." style="rounded=1;whiteSpace=wrap;html=1;fontSize=12;glass=0;strokeWidth=1;shadow=0;dashed=1;" vertex="1" parent="WIyWlLk6GJQsqaUBKTNV-1">
          <mxGeometry x="150" y="402.5" width="330" height="55" as="geometry" />
        </mxCell>
        <mxCell id="NFUYtC_mD7zzvTQgRDWZ-36" value="" style="endArrow=classic;startArrow=classic;html=1;rounded=0;dashed=1;dashPattern=8 8;" edge="1" parent="WIyWlLk6GJQsqaUBKTNV-1">
          <mxGeometry width="50" height="50" relative="1" as="geometry">
            <mxPoint x="379.5" y="405" as="sourcePoint" />
            <mxPoint x="379.5" y="345" as="targetPoint" />
          </mxGeometry>
        </mxCell>
        <mxCell id="WIyWlLk6GJQsqaUBKTNV-11" value="日志服务" style="rounded=1;whiteSpace=wrap;html=1;fontSize=12;glass=0;strokeWidth=1;shadow=0;" parent="WIyWlLk6GJQsqaUBKTNV-1" vertex="1">
          <mxGeometry x="160" y="410" width="80" height="40" as="geometry" />
        </mxCell>
        <mxCell id="NFUYtC_mD7zzvTQgRDWZ-7" value="对象存储" style="rounded=1;whiteSpace=wrap;html=1;fontSize=12;glass=0;strokeWidth=1;shadow=0;" vertex="1" parent="WIyWlLk6GJQsqaUBKTNV-1">
          <mxGeometry x="250" y="410" width="80" height="40" as="geometry" />
        </mxCell>
        <mxCell id="NFUYtC_mD7zzvTQgRDWZ-8" value="...." style="rounded=1;whiteSpace=wrap;html=1;fontSize=12;glass=0;strokeWidth=1;shadow=0;" vertex="1" parent="WIyWlLk6GJQsqaUBKTNV-1">
          <mxGeometry x="340" y="410" width="80" height="40" as="geometry" />
        </mxCell>
        <mxCell id="NFUYtC_mD7zzvTQgRDWZ-38" value="" style="endArrow=classic;startArrow=classic;html=1;rounded=0;dashed=1;dashPattern=8 8;" edge="1" parent="WIyWlLk6GJQsqaUBKTNV-1">
          <mxGeometry width="50" height="50" relative="1" as="geometry">
            <mxPoint x="510" y="160" as="sourcePoint" />
            <mxPoint x="510" y="110" as="targetPoint" />
          </mxGeometry>
        </mxCell>
        <mxCell id="NFUYtC_mD7zzvTQgRDWZ-39" value="" style="endArrow=classic;startArrow=classic;html=1;rounded=0;dashed=1;dashPattern=8 8;" edge="1" parent="WIyWlLk6GJQsqaUBKTNV-1">
          <mxGeometry width="50" height="50" relative="1" as="geometry">
            <mxPoint x="259.5" y="160" as="sourcePoint" />
            <mxPoint x="259.5" y="110" as="targetPoint" />
          </mxGeometry>
        </mxCell>
        <mxCell id="NFUYtC_mD7zzvTQgRDWZ-67" style="rounded=0;orthogonalLoop=1;jettySize=auto;html=1;exitX=1;exitY=0.5;exitDx=0;exitDy=0;dashed=1;dashPattern=8 8;endArrow=none;endFill=0;strokeColor=default;" edge="1" parent="WIyWlLk6GJQsqaUBKTNV-1" source="NFUYtC_mD7zzvTQgRDWZ-40" target="NFUYtC_mD7zzvTQgRDWZ-41">
          <mxGeometry relative="1" as="geometry" />
        </mxCell>
        <mxCell id="NFUYtC_mD7zzvTQgRDWZ-40" value="用户ID" style="ellipse;whiteSpace=wrap;html=1;dashed=1;" vertex="1" parent="WIyWlLk6GJQsqaUBKTNV-1">
          <mxGeometry x="200" y="710" width="80" height="30" as="geometry" />
        </mxCell>
        <mxCell id="NFUYtC_mD7zzvTQgRDWZ-62" style="edgeStyle=orthogonalEdgeStyle;curved=1;rounded=0;orthogonalLoop=1;jettySize=auto;html=1;exitX=1;exitY=0.5;exitDx=0;exitDy=0;dashed=1;dashPattern=8 8;endArrow=none;endFill=0;" edge="1" parent="WIyWlLk6GJQsqaUBKTNV-1" source="NFUYtC_mD7zzvTQgRDWZ-41" target="NFUYtC_mD7zzvTQgRDWZ-56">
          <mxGeometry relative="1" as="geometry" />
        </mxCell>
        <mxCell id="NFUYtC_mD7zzvTQgRDWZ-73" value="n" style="edgeLabel;html=1;align=center;verticalAlign=middle;resizable=0;points=[];" vertex="1" connectable="0" parent="NFUYtC_mD7zzvTQgRDWZ-62">
          <mxGeometry x="0.32" y="4" relative="1" as="geometry">
            <mxPoint y="1" as="offset" />
          </mxGeometry>
        </mxCell>
        <mxCell id="NFUYtC_mD7zzvTQgRDWZ-41" value="用户" style="rounded=0;whiteSpace=wrap;html=1;dashed=1;" vertex="1" parent="WIyWlLk6GJQsqaUBKTNV-1">
          <mxGeometry x="200" y="820" width="100" height="40" as="geometry" />
        </mxCell>
        <mxCell id="NFUYtC_mD7zzvTQgRDWZ-66" style="rounded=0;orthogonalLoop=1;jettySize=auto;html=1;exitX=1;exitY=0.5;exitDx=0;exitDy=0;entryX=0.13;entryY=-0.087;entryDx=0;entryDy=0;entryPerimeter=0;dashed=1;dashPattern=8 8;endArrow=none;endFill=0;" edge="1" parent="WIyWlLk6GJQsqaUBKTNV-1" source="NFUYtC_mD7zzvTQgRDWZ-42" target="NFUYtC_mD7zzvTQgRDWZ-41">
          <mxGeometry relative="1" as="geometry" />
        </mxCell>
        <mxCell id="NFUYtC_mD7zzvTQgRDWZ-42" value="姓名" style="ellipse;whiteSpace=wrap;html=1;dashed=1;" vertex="1" parent="WIyWlLk6GJQsqaUBKTNV-1">
          <mxGeometry x="110" y="740" width="80" height="30" as="geometry" />
        </mxCell>
        <mxCell id="NFUYtC_mD7zzvTQgRDWZ-65" style="edgeStyle=orthogonalEdgeStyle;curved=1;rounded=0;orthogonalLoop=1;jettySize=auto;html=1;exitX=1;exitY=0.5;exitDx=0;exitDy=0;entryX=0;entryY=0.5;entryDx=0;entryDy=0;dashed=1;dashPattern=8 8;endArrow=none;endFill=0;" edge="1" parent="WIyWlLk6GJQsqaUBKTNV-1" source="NFUYtC_mD7zzvTQgRDWZ-43" target="NFUYtC_mD7zzvTQgRDWZ-41">
          <mxGeometry relative="1" as="geometry" />
        </mxCell>
        <mxCell id="NFUYtC_mD7zzvTQgRDWZ-43" value="性别" style="ellipse;whiteSpace=wrap;html=1;dashed=1;" vertex="1" parent="WIyWlLk6GJQsqaUBKTNV-1">
          <mxGeometry x="90" y="820" width="80" height="30" as="geometry" />
        </mxCell>
        <mxCell id="NFUYtC_mD7zzvTQgRDWZ-64" style="rounded=0;orthogonalLoop=1;jettySize=auto;html=1;exitX=1;exitY=0;exitDx=0;exitDy=0;dashed=1;dashPattern=8 8;endArrow=none;endFill=0;" edge="1" parent="WIyWlLk6GJQsqaUBKTNV-1" source="NFUYtC_mD7zzvTQgRDWZ-44" target="NFUYtC_mD7zzvTQgRDWZ-41">
          <mxGeometry relative="1" as="geometry" />
        </mxCell>
        <mxCell id="NFUYtC_mD7zzvTQgRDWZ-44" value="年龄" style="ellipse;whiteSpace=wrap;html=1;dashed=1;" vertex="1" parent="WIyWlLk6GJQsqaUBKTNV-1">
          <mxGeometry x="90" y="900" width="80" height="30" as="geometry" />
        </mxCell>
        <mxCell id="NFUYtC_mD7zzvTQgRDWZ-63" style="rounded=0;orthogonalLoop=1;jettySize=auto;html=1;exitX=0.5;exitY=0;exitDx=0;exitDy=0;entryX=0.5;entryY=1;entryDx=0;entryDy=0;dashed=1;dashPattern=8 8;endArrow=none;endFill=0;" edge="1" parent="WIyWlLk6GJQsqaUBKTNV-1" source="NFUYtC_mD7zzvTQgRDWZ-45" target="NFUYtC_mD7zzvTQgRDWZ-41">
          <mxGeometry relative="1" as="geometry" />
        </mxCell>
        <mxCell id="NFUYtC_mD7zzvTQgRDWZ-45" value="昵称" style="ellipse;whiteSpace=wrap;html=1;dashed=1;" vertex="1" parent="WIyWlLk6GJQsqaUBKTNV-1">
          <mxGeometry x="170" y="940" width="80" height="30" as="geometry" />
        </mxCell>
        <mxCell id="NFUYtC_mD7zzvTQgRDWZ-61" value="1" style="edgeStyle=orthogonalEdgeStyle;curved=1;rounded=0;orthogonalLoop=1;jettySize=auto;html=1;exitX=0;exitY=0.5;exitDx=0;exitDy=0;entryX=0.94;entryY=0.475;entryDx=0;entryDy=0;entryPerimeter=0;dashed=1;dashPattern=8 8;endArrow=none;endFill=0;" edge="1" parent="WIyWlLk6GJQsqaUBKTNV-1" source="NFUYtC_mD7zzvTQgRDWZ-50" target="NFUYtC_mD7zzvTQgRDWZ-56">
          <mxGeometry relative="1" as="geometry" />
        </mxCell>
        <mxCell id="NFUYtC_mD7zzvTQgRDWZ-68" style="edgeStyle=none;rounded=0;orthogonalLoop=1;jettySize=auto;html=1;exitX=0.5;exitY=0;exitDx=0;exitDy=0;dashed=1;dashPattern=8 8;strokeColor=default;endArrow=none;endFill=0;" edge="1" parent="WIyWlLk6GJQsqaUBKTNV-1" source="NFUYtC_mD7zzvTQgRDWZ-50" target="NFUYtC_mD7zzvTQgRDWZ-55">
          <mxGeometry relative="1" as="geometry" />
        </mxCell>
        <mxCell id="NFUYtC_mD7zzvTQgRDWZ-69" style="edgeStyle=none;rounded=0;orthogonalLoop=1;jettySize=auto;html=1;exitX=1;exitY=0;exitDx=0;exitDy=0;dashed=1;dashPattern=8 8;strokeColor=default;endArrow=none;endFill=0;" edge="1" parent="WIyWlLk6GJQsqaUBKTNV-1" source="NFUYtC_mD7zzvTQgRDWZ-50" target="NFUYtC_mD7zzvTQgRDWZ-57">
          <mxGeometry relative="1" as="geometry" />
        </mxCell>
        <mxCell id="NFUYtC_mD7zzvTQgRDWZ-70" style="edgeStyle=none;rounded=0;orthogonalLoop=1;jettySize=auto;html=1;exitX=1;exitY=0.5;exitDx=0;exitDy=0;entryX=0;entryY=0.5;entryDx=0;entryDy=0;dashed=1;dashPattern=8 8;strokeColor=default;endArrow=none;endFill=0;" edge="1" parent="WIyWlLk6GJQsqaUBKTNV-1" source="NFUYtC_mD7zzvTQgRDWZ-50" target="NFUYtC_mD7zzvTQgRDWZ-58">
          <mxGeometry relative="1" as="geometry" />
        </mxCell>
        <mxCell id="NFUYtC_mD7zzvTQgRDWZ-71" style="edgeStyle=none;rounded=0;orthogonalLoop=1;jettySize=auto;html=1;exitX=1;exitY=1;exitDx=0;exitDy=0;dashed=1;dashPattern=8 8;strokeColor=default;endArrow=none;endFill=0;" edge="1" parent="WIyWlLk6GJQsqaUBKTNV-1" source="NFUYtC_mD7zzvTQgRDWZ-50" target="NFUYtC_mD7zzvTQgRDWZ-60">
          <mxGeometry relative="1" as="geometry" />
        </mxCell>
        <mxCell id="NFUYtC_mD7zzvTQgRDWZ-72" style="edgeStyle=none;rounded=0;orthogonalLoop=1;jettySize=auto;html=1;exitX=0.5;exitY=1;exitDx=0;exitDy=0;entryX=0.25;entryY=0;entryDx=0;entryDy=0;entryPerimeter=0;dashed=1;dashPattern=8 8;strokeColor=default;endArrow=none;endFill=0;" edge="1" parent="WIyWlLk6GJQsqaUBKTNV-1" source="NFUYtC_mD7zzvTQgRDWZ-50" target="NFUYtC_mD7zzvTQgRDWZ-59">
          <mxGeometry relative="1" as="geometry" />
        </mxCell>
        <mxCell id="NFUYtC_mD7zzvTQgRDWZ-50" value="组织" style="rounded=0;whiteSpace=wrap;html=1;dashed=1;" vertex="1" parent="WIyWlLk6GJQsqaUBKTNV-1">
          <mxGeometry x="460" y="820" width="100" height="40" as="geometry" />
        </mxCell>
        <mxCell id="NFUYtC_mD7zzvTQgRDWZ-55" value="组织ID" style="ellipse;whiteSpace=wrap;html=1;dashed=1;" vertex="1" parent="WIyWlLk6GJQsqaUBKTNV-1">
          <mxGeometry x="520" y="710" width="80" height="30" as="geometry" />
        </mxCell>
        <mxCell id="NFUYtC_mD7zzvTQgRDWZ-56" value="属于" style="rhombus;whiteSpace=wrap;html=1;dashed=1;" vertex="1" parent="WIyWlLk6GJQsqaUBKTNV-1">
          <mxGeometry x="330" y="810" width="100" height="60" as="geometry" />
        </mxCell>
        <mxCell id="NFUYtC_mD7zzvTQgRDWZ-57" value="名称" style="ellipse;whiteSpace=wrap;html=1;dashed=1;" vertex="1" parent="WIyWlLk6GJQsqaUBKTNV-1">
          <mxGeometry x="580" y="760" width="80" height="30" as="geometry" />
        </mxCell>
        <mxCell id="NFUYtC_mD7zzvTQgRDWZ-58" value="机构代码" style="ellipse;whiteSpace=wrap;html=1;dashed=1;" vertex="1" parent="WIyWlLk6GJQsqaUBKTNV-1">
          <mxGeometry x="600" y="825" width="80" height="30" as="geometry" />
        </mxCell>
        <mxCell id="NFUYtC_mD7zzvTQgRDWZ-59" value="注册地址" style="ellipse;whiteSpace=wrap;html=1;dashed=1;" vertex="1" parent="WIyWlLk6GJQsqaUBKTNV-1">
          <mxGeometry x="520" y="940" width="80" height="30" as="geometry" />
        </mxCell>
        <mxCell id="NFUYtC_mD7zzvTQgRDWZ-60" value="类型" style="ellipse;whiteSpace=wrap;html=1;dashed=1;" vertex="1" parent="WIyWlLk6GJQsqaUBKTNV-1">
          <mxGeometry x="580" y="880" width="80" height="30" as="geometry" />
        </mxCell>
        <mxCell id="NFUYtC_mD7zzvTQgRDWZ-75" style="rounded=0;orthogonalLoop=1;jettySize=auto;html=1;exitX=1;exitY=0.5;exitDx=0;exitDy=0;dashed=1;dashPattern=8 8;endArrow=none;endFill=0;strokeColor=default;" edge="1" parent="WIyWlLk6GJQsqaUBKTNV-1" source="NFUYtC_mD7zzvTQgRDWZ-76" target="NFUYtC_mD7zzvTQgRDWZ-79">
          <mxGeometry relative="1" as="geometry" />
        </mxCell>
        <mxCell id="NFUYtC_mD7zzvTQgRDWZ-76" value="部门ID" style="ellipse;whiteSpace=wrap;html=1;dashed=1;" vertex="1" parent="WIyWlLk6GJQsqaUBKTNV-1">
          <mxGeometry x="190" y="1050" width="80" height="30" as="geometry" />
        </mxCell>
        <mxCell id="NFUYtC_mD7zzvTQgRDWZ-77" style="edgeStyle=orthogonalEdgeStyle;curved=1;rounded=0;orthogonalLoop=1;jettySize=auto;html=1;exitX=1;exitY=0.5;exitDx=0;exitDy=0;dashed=1;dashPattern=8 8;endArrow=none;endFill=0;" edge="1" parent="WIyWlLk6GJQsqaUBKTNV-1" source="NFUYtC_mD7zzvTQgRDWZ-79" target="NFUYtC_mD7zzvTQgRDWZ-96">
          <mxGeometry relative="1" as="geometry" />
        </mxCell>
        <mxCell id="NFUYtC_mD7zzvTQgRDWZ-78" value="n" style="edgeLabel;html=1;align=center;verticalAlign=middle;resizable=0;points=[];" vertex="1" connectable="0" parent="NFUYtC_mD7zzvTQgRDWZ-77">
          <mxGeometry x="0.32" y="4" relative="1" as="geometry">
            <mxPoint y="1" as="offset" />
          </mxGeometry>
        </mxCell>
        <mxCell id="NFUYtC_mD7zzvTQgRDWZ-79" value="部门" style="rounded=0;whiteSpace=wrap;html=1;dashed=1;" vertex="1" parent="WIyWlLk6GJQsqaUBKTNV-1">
          <mxGeometry x="190" y="1160" width="100" height="40" as="geometry" />
        </mxCell>
        <mxCell id="NFUYtC_mD7zzvTQgRDWZ-80" style="rounded=0;orthogonalLoop=1;jettySize=auto;html=1;exitX=1;exitY=0.5;exitDx=0;exitDy=0;entryX=0.13;entryY=-0.087;entryDx=0;entryDy=0;entryPerimeter=0;dashed=1;dashPattern=8 8;endArrow=none;endFill=0;" edge="1" parent="WIyWlLk6GJQsqaUBKTNV-1" source="NFUYtC_mD7zzvTQgRDWZ-81" target="NFUYtC_mD7zzvTQgRDWZ-79">
          <mxGeometry relative="1" as="geometry" />
        </mxCell>
        <mxCell id="NFUYtC_mD7zzvTQgRDWZ-81" value="名称" style="ellipse;whiteSpace=wrap;html=1;dashed=1;" vertex="1" parent="WIyWlLk6GJQsqaUBKTNV-1">
          <mxGeometry x="100" y="1080" width="80" height="30" as="geometry" />
        </mxCell>
        <mxCell id="NFUYtC_mD7zzvTQgRDWZ-82" style="edgeStyle=orthogonalEdgeStyle;curved=1;rounded=0;orthogonalLoop=1;jettySize=auto;html=1;exitX=1;exitY=0.5;exitDx=0;exitDy=0;entryX=0;entryY=0.5;entryDx=0;entryDy=0;dashed=1;dashPattern=8 8;endArrow=none;endFill=0;" edge="1" parent="WIyWlLk6GJQsqaUBKTNV-1" source="NFUYtC_mD7zzvTQgRDWZ-83" target="NFUYtC_mD7zzvTQgRDWZ-79">
          <mxGeometry relative="1" as="geometry" />
        </mxCell>
        <mxCell id="NFUYtC_mD7zzvTQgRDWZ-83" value="编号" style="ellipse;whiteSpace=wrap;html=1;dashed=1;" vertex="1" parent="WIyWlLk6GJQsqaUBKTNV-1">
          <mxGeometry x="80" y="1160" width="80" height="30" as="geometry" />
        </mxCell>
        <mxCell id="NFUYtC_mD7zzvTQgRDWZ-84" style="rounded=0;orthogonalLoop=1;jettySize=auto;html=1;exitX=1;exitY=0;exitDx=0;exitDy=0;dashed=1;dashPattern=8 8;endArrow=none;endFill=0;" edge="1" parent="WIyWlLk6GJQsqaUBKTNV-1" source="NFUYtC_mD7zzvTQgRDWZ-85" target="NFUYtC_mD7zzvTQgRDWZ-79">
          <mxGeometry relative="1" as="geometry" />
        </mxCell>
        <mxCell id="NFUYtC_mD7zzvTQgRDWZ-85" value="等级" style="ellipse;whiteSpace=wrap;html=1;dashed=1;" vertex="1" parent="WIyWlLk6GJQsqaUBKTNV-1">
          <mxGeometry x="80" y="1240" width="80" height="30" as="geometry" />
        </mxCell>
        <mxCell id="NFUYtC_mD7zzvTQgRDWZ-88" value="1" style="edgeStyle=orthogonalEdgeStyle;curved=1;rounded=0;orthogonalLoop=1;jettySize=auto;html=1;exitX=0;exitY=0.5;exitDx=0;exitDy=0;entryX=0.94;entryY=0.475;entryDx=0;entryDy=0;entryPerimeter=0;dashed=1;dashPattern=8 8;endArrow=none;endFill=0;" edge="1" parent="WIyWlLk6GJQsqaUBKTNV-1" source="NFUYtC_mD7zzvTQgRDWZ-94" target="NFUYtC_mD7zzvTQgRDWZ-96">
          <mxGeometry relative="1" as="geometry" />
        </mxCell>
        <mxCell id="NFUYtC_mD7zzvTQgRDWZ-89" style="edgeStyle=none;rounded=0;orthogonalLoop=1;jettySize=auto;html=1;exitX=0.5;exitY=0;exitDx=0;exitDy=0;dashed=1;dashPattern=8 8;strokeColor=default;endArrow=none;endFill=0;" edge="1" parent="WIyWlLk6GJQsqaUBKTNV-1" source="NFUYtC_mD7zzvTQgRDWZ-94" target="NFUYtC_mD7zzvTQgRDWZ-95">
          <mxGeometry relative="1" as="geometry" />
        </mxCell>
        <mxCell id="NFUYtC_mD7zzvTQgRDWZ-90" style="edgeStyle=none;rounded=0;orthogonalLoop=1;jettySize=auto;html=1;exitX=1;exitY=0;exitDx=0;exitDy=0;dashed=1;dashPattern=8 8;strokeColor=default;endArrow=none;endFill=0;" edge="1" parent="WIyWlLk6GJQsqaUBKTNV-1" source="NFUYtC_mD7zzvTQgRDWZ-94" target="NFUYtC_mD7zzvTQgRDWZ-97">
          <mxGeometry relative="1" as="geometry" />
        </mxCell>
        <mxCell id="NFUYtC_mD7zzvTQgRDWZ-91" style="edgeStyle=none;rounded=0;orthogonalLoop=1;jettySize=auto;html=1;exitX=1;exitY=0.5;exitDx=0;exitDy=0;entryX=0;entryY=0.5;entryDx=0;entryDy=0;dashed=1;dashPattern=8 8;strokeColor=default;endArrow=none;endFill=0;" edge="1" parent="WIyWlLk6GJQsqaUBKTNV-1" source="NFUYtC_mD7zzvTQgRDWZ-94" target="NFUYtC_mD7zzvTQgRDWZ-98">
          <mxGeometry relative="1" as="geometry" />
        </mxCell>
        <mxCell id="NFUYtC_mD7zzvTQgRDWZ-92" style="edgeStyle=none;rounded=0;orthogonalLoop=1;jettySize=auto;html=1;exitX=1;exitY=1;exitDx=0;exitDy=0;dashed=1;dashPattern=8 8;strokeColor=default;endArrow=none;endFill=0;" edge="1" parent="WIyWlLk6GJQsqaUBKTNV-1" source="NFUYtC_mD7zzvTQgRDWZ-94" target="NFUYtC_mD7zzvTQgRDWZ-100">
          <mxGeometry relative="1" as="geometry" />
        </mxCell>
        <mxCell id="NFUYtC_mD7zzvTQgRDWZ-93" style="edgeStyle=none;rounded=0;orthogonalLoop=1;jettySize=auto;html=1;exitX=0.5;exitY=1;exitDx=0;exitDy=0;entryX=0.25;entryY=0;entryDx=0;entryDy=0;entryPerimeter=0;dashed=1;dashPattern=8 8;strokeColor=default;endArrow=none;endFill=0;" edge="1" parent="WIyWlLk6GJQsqaUBKTNV-1" source="NFUYtC_mD7zzvTQgRDWZ-94" target="NFUYtC_mD7zzvTQgRDWZ-99">
          <mxGeometry relative="1" as="geometry" />
        </mxCell>
        <mxCell id="NFUYtC_mD7zzvTQgRDWZ-94" value="组织" style="rounded=0;whiteSpace=wrap;html=1;dashed=1;" vertex="1" parent="WIyWlLk6GJQsqaUBKTNV-1">
          <mxGeometry x="450" y="1160" width="100" height="40" as="geometry" />
        </mxCell>
        <mxCell id="NFUYtC_mD7zzvTQgRDWZ-95" value="组织ID" style="ellipse;whiteSpace=wrap;html=1;dashed=1;" vertex="1" parent="WIyWlLk6GJQsqaUBKTNV-1">
          <mxGeometry x="510" y="1050" width="80" height="30" as="geometry" />
        </mxCell>
        <mxCell id="NFUYtC_mD7zzvTQgRDWZ-96" value="属于" style="rhombus;whiteSpace=wrap;html=1;dashed=1;" vertex="1" parent="WIyWlLk6GJQsqaUBKTNV-1">
          <mxGeometry x="320" y="1150" width="100" height="60" as="geometry" />
        </mxCell>
        <mxCell id="NFUYtC_mD7zzvTQgRDWZ-97" value="名称" style="ellipse;whiteSpace=wrap;html=1;dashed=1;" vertex="1" parent="WIyWlLk6GJQsqaUBKTNV-1">
          <mxGeometry x="570" y="1100" width="80" height="30" as="geometry" />
        </mxCell>
        <mxCell id="NFUYtC_mD7zzvTQgRDWZ-98" value="机构代码" style="ellipse;whiteSpace=wrap;html=1;dashed=1;" vertex="1" parent="WIyWlLk6GJQsqaUBKTNV-1">
          <mxGeometry x="590" y="1165" width="80" height="30" as="geometry" />
        </mxCell>
        <mxCell id="NFUYtC_mD7zzvTQgRDWZ-99" value="注册地址" style="ellipse;whiteSpace=wrap;html=1;dashed=1;" vertex="1" parent="WIyWlLk6GJQsqaUBKTNV-1">
          <mxGeometry x="510" y="1280" width="80" height="30" as="geometry" />
        </mxCell>
        <mxCell id="NFUYtC_mD7zzvTQgRDWZ-100" value="类型" style="ellipse;whiteSpace=wrap;html=1;dashed=1;" vertex="1" parent="WIyWlLk6GJQsqaUBKTNV-1">
          <mxGeometry x="570" y="1220" width="80" height="30" as="geometry" />
        </mxCell>
        <mxCell id="NFUYtC_mD7zzvTQgRDWZ-125" style="rounded=0;orthogonalLoop=1;jettySize=auto;html=1;exitX=1;exitY=0.5;exitDx=0;exitDy=0;dashed=1;dashPattern=8 8;endArrow=none;endFill=0;strokeColor=default;" edge="1" parent="WIyWlLk6GJQsqaUBKTNV-1" source="NFUYtC_mD7zzvTQgRDWZ-126" target="NFUYtC_mD7zzvTQgRDWZ-129">
          <mxGeometry relative="1" as="geometry" />
        </mxCell>
        <mxCell id="NFUYtC_mD7zzvTQgRDWZ-126" value="用户ID" style="ellipse;whiteSpace=wrap;html=1;dashed=1;" vertex="1" parent="WIyWlLk6GJQsqaUBKTNV-1">
          <mxGeometry x="229" y="1430" width="80" height="30" as="geometry" />
        </mxCell>
        <mxCell id="NFUYtC_mD7zzvTQgRDWZ-127" style="edgeStyle=orthogonalEdgeStyle;curved=1;rounded=0;orthogonalLoop=1;jettySize=auto;html=1;exitX=1;exitY=0.5;exitDx=0;exitDy=0;dashed=1;dashPattern=8 8;endArrow=none;endFill=0;" edge="1" parent="WIyWlLk6GJQsqaUBKTNV-1" source="NFUYtC_mD7zzvTQgRDWZ-129" target="NFUYtC_mD7zzvTQgRDWZ-146">
          <mxGeometry relative="1" as="geometry" />
        </mxCell>
        <mxCell id="NFUYtC_mD7zzvTQgRDWZ-128" value="m" style="edgeLabel;html=1;align=center;verticalAlign=middle;resizable=0;points=[];" vertex="1" connectable="0" parent="NFUYtC_mD7zzvTQgRDWZ-127">
          <mxGeometry x="0.32" y="4" relative="1" as="geometry">
            <mxPoint y="1" as="offset" />
          </mxGeometry>
        </mxCell>
        <mxCell id="NFUYtC_mD7zzvTQgRDWZ-129" value="用户" style="rounded=0;whiteSpace=wrap;html=1;dashed=1;" vertex="1" parent="WIyWlLk6GJQsqaUBKTNV-1">
          <mxGeometry x="229" y="1540" width="100" height="40" as="geometry" />
        </mxCell>
        <mxCell id="NFUYtC_mD7zzvTQgRDWZ-130" style="rounded=0;orthogonalLoop=1;jettySize=auto;html=1;exitX=1;exitY=0.5;exitDx=0;exitDy=0;entryX=0.13;entryY=-0.087;entryDx=0;entryDy=0;entryPerimeter=0;dashed=1;dashPattern=8 8;endArrow=none;endFill=0;" edge="1" parent="WIyWlLk6GJQsqaUBKTNV-1" source="NFUYtC_mD7zzvTQgRDWZ-131" target="NFUYtC_mD7zzvTQgRDWZ-129">
          <mxGeometry relative="1" as="geometry" />
        </mxCell>
        <mxCell id="NFUYtC_mD7zzvTQgRDWZ-131" value="姓名" style="ellipse;whiteSpace=wrap;html=1;dashed=1;" vertex="1" parent="WIyWlLk6GJQsqaUBKTNV-1">
          <mxGeometry x="139" y="1460" width="80" height="30" as="geometry" />
        </mxCell>
        <mxCell id="NFUYtC_mD7zzvTQgRDWZ-132" style="edgeStyle=orthogonalEdgeStyle;curved=1;rounded=0;orthogonalLoop=1;jettySize=auto;html=1;exitX=1;exitY=0.5;exitDx=0;exitDy=0;entryX=0;entryY=0.5;entryDx=0;entryDy=0;dashed=1;dashPattern=8 8;endArrow=none;endFill=0;" edge="1" parent="WIyWlLk6GJQsqaUBKTNV-1" source="NFUYtC_mD7zzvTQgRDWZ-133" target="NFUYtC_mD7zzvTQgRDWZ-129">
          <mxGeometry relative="1" as="geometry" />
        </mxCell>
        <mxCell id="NFUYtC_mD7zzvTQgRDWZ-133" value="性别" style="ellipse;whiteSpace=wrap;html=1;dashed=1;" vertex="1" parent="WIyWlLk6GJQsqaUBKTNV-1">
          <mxGeometry x="119" y="1540" width="80" height="30" as="geometry" />
        </mxCell>
        <mxCell id="NFUYtC_mD7zzvTQgRDWZ-134" style="rounded=0;orthogonalLoop=1;jettySize=auto;html=1;exitX=1;exitY=0;exitDx=0;exitDy=0;dashed=1;dashPattern=8 8;endArrow=none;endFill=0;" edge="1" parent="WIyWlLk6GJQsqaUBKTNV-1" source="NFUYtC_mD7zzvTQgRDWZ-135" target="NFUYtC_mD7zzvTQgRDWZ-129">
          <mxGeometry relative="1" as="geometry" />
        </mxCell>
        <mxCell id="NFUYtC_mD7zzvTQgRDWZ-135" value="年龄" style="ellipse;whiteSpace=wrap;html=1;dashed=1;" vertex="1" parent="WIyWlLk6GJQsqaUBKTNV-1">
          <mxGeometry x="119" y="1620" width="80" height="30" as="geometry" />
        </mxCell>
        <mxCell id="NFUYtC_mD7zzvTQgRDWZ-136" style="rounded=0;orthogonalLoop=1;jettySize=auto;html=1;exitX=0.5;exitY=0;exitDx=0;exitDy=0;entryX=0.5;entryY=1;entryDx=0;entryDy=0;dashed=1;dashPattern=8 8;endArrow=none;endFill=0;" edge="1" parent="WIyWlLk6GJQsqaUBKTNV-1" source="NFUYtC_mD7zzvTQgRDWZ-137" target="NFUYtC_mD7zzvTQgRDWZ-129">
          <mxGeometry relative="1" as="geometry" />
        </mxCell>
        <mxCell id="NFUYtC_mD7zzvTQgRDWZ-137" value="昵称" style="ellipse;whiteSpace=wrap;html=1;dashed=1;" vertex="1" parent="WIyWlLk6GJQsqaUBKTNV-1">
          <mxGeometry x="199" y="1660" width="80" height="30" as="geometry" />
        </mxCell>
        <mxCell id="NFUYtC_mD7zzvTQgRDWZ-138" value="n" style="edgeStyle=orthogonalEdgeStyle;curved=1;rounded=0;orthogonalLoop=1;jettySize=auto;html=1;exitX=0;exitY=0.5;exitDx=0;exitDy=0;entryX=0.94;entryY=0.475;entryDx=0;entryDy=0;entryPerimeter=0;dashed=1;dashPattern=8 8;endArrow=none;endFill=0;" edge="1" parent="WIyWlLk6GJQsqaUBKTNV-1" source="NFUYtC_mD7zzvTQgRDWZ-144" target="NFUYtC_mD7zzvTQgRDWZ-146">
          <mxGeometry relative="1" as="geometry" />
        </mxCell>
        <mxCell id="NFUYtC_mD7zzvTQgRDWZ-139" style="edgeStyle=none;rounded=0;orthogonalLoop=1;jettySize=auto;html=1;exitX=0.5;exitY=0;exitDx=0;exitDy=0;dashed=1;dashPattern=8 8;strokeColor=default;endArrow=none;endFill=0;" edge="1" parent="WIyWlLk6GJQsqaUBKTNV-1" source="NFUYtC_mD7zzvTQgRDWZ-144" target="NFUYtC_mD7zzvTQgRDWZ-145">
          <mxGeometry relative="1" as="geometry" />
        </mxCell>
        <mxCell id="NFUYtC_mD7zzvTQgRDWZ-140" style="edgeStyle=none;rounded=0;orthogonalLoop=1;jettySize=auto;html=1;exitX=1;exitY=0;exitDx=0;exitDy=0;dashed=1;dashPattern=8 8;strokeColor=default;endArrow=none;endFill=0;" edge="1" parent="WIyWlLk6GJQsqaUBKTNV-1" source="NFUYtC_mD7zzvTQgRDWZ-144" target="NFUYtC_mD7zzvTQgRDWZ-147">
          <mxGeometry relative="1" as="geometry" />
        </mxCell>
        <mxCell id="NFUYtC_mD7zzvTQgRDWZ-141" style="edgeStyle=none;rounded=0;orthogonalLoop=1;jettySize=auto;html=1;exitX=1;exitY=0.5;exitDx=0;exitDy=0;entryX=0;entryY=0.5;entryDx=0;entryDy=0;dashed=1;dashPattern=8 8;strokeColor=default;endArrow=none;endFill=0;" edge="1" parent="WIyWlLk6GJQsqaUBKTNV-1" source="NFUYtC_mD7zzvTQgRDWZ-144" target="NFUYtC_mD7zzvTQgRDWZ-148">
          <mxGeometry relative="1" as="geometry" />
        </mxCell>
        <mxCell id="NFUYtC_mD7zzvTQgRDWZ-142" style="edgeStyle=none;rounded=0;orthogonalLoop=1;jettySize=auto;html=1;exitX=1;exitY=1;exitDx=0;exitDy=0;dashed=1;dashPattern=8 8;strokeColor=default;endArrow=none;endFill=0;" edge="1" parent="WIyWlLk6GJQsqaUBKTNV-1" source="NFUYtC_mD7zzvTQgRDWZ-144" target="NFUYtC_mD7zzvTQgRDWZ-150">
          <mxGeometry relative="1" as="geometry" />
        </mxCell>
        <mxCell id="NFUYtC_mD7zzvTQgRDWZ-143" style="edgeStyle=none;rounded=0;orthogonalLoop=1;jettySize=auto;html=1;exitX=0.5;exitY=1;exitDx=0;exitDy=0;entryX=0.25;entryY=0;entryDx=0;entryDy=0;entryPerimeter=0;dashed=1;dashPattern=8 8;strokeColor=default;endArrow=none;endFill=0;" edge="1" parent="WIyWlLk6GJQsqaUBKTNV-1" source="NFUYtC_mD7zzvTQgRDWZ-144" target="NFUYtC_mD7zzvTQgRDWZ-149">
          <mxGeometry relative="1" as="geometry" />
        </mxCell>
        <mxCell id="NFUYtC_mD7zzvTQgRDWZ-144" value="角色" style="rounded=0;whiteSpace=wrap;html=1;dashed=1;" vertex="1" parent="WIyWlLk6GJQsqaUBKTNV-1">
          <mxGeometry x="489" y="1540" width="100" height="40" as="geometry" />
        </mxCell>
        <mxCell id="NFUYtC_mD7zzvTQgRDWZ-145" value="角色ID" style="ellipse;whiteSpace=wrap;html=1;dashed=1;" vertex="1" parent="WIyWlLk6GJQsqaUBKTNV-1">
          <mxGeometry x="549" y="1430" width="80" height="30" as="geometry" />
        </mxCell>
        <mxCell id="NFUYtC_mD7zzvTQgRDWZ-146" value="拥有" style="rhombus;whiteSpace=wrap;html=1;dashed=1;" vertex="1" parent="WIyWlLk6GJQsqaUBKTNV-1">
          <mxGeometry x="359" y="1530" width="100" height="60" as="geometry" />
        </mxCell>
        <mxCell id="NFUYtC_mD7zzvTQgRDWZ-147" value="名称" style="ellipse;whiteSpace=wrap;html=1;dashed=1;" vertex="1" parent="WIyWlLk6GJQsqaUBKTNV-1">
          <mxGeometry x="609" y="1480" width="80" height="30" as="geometry" />
        </mxCell>
        <mxCell id="NFUYtC_mD7zzvTQgRDWZ-148" value="编号" style="ellipse;whiteSpace=wrap;html=1;dashed=1;" vertex="1" parent="WIyWlLk6GJQsqaUBKTNV-1">
          <mxGeometry x="629" y="1545" width="80" height="30" as="geometry" />
        </mxCell>
        <mxCell id="NFUYtC_mD7zzvTQgRDWZ-149" value="定义" style="ellipse;whiteSpace=wrap;html=1;dashed=1;" vertex="1" parent="WIyWlLk6GJQsqaUBKTNV-1">
          <mxGeometry x="549" y="1660" width="80" height="30" as="geometry" />
        </mxCell>
        <mxCell id="NFUYtC_mD7zzvTQgRDWZ-150" value="类型" style="ellipse;whiteSpace=wrap;html=1;dashed=1;" vertex="1" parent="WIyWlLk6GJQsqaUBKTNV-1">
          <mxGeometry x="609" y="1600" width="80" height="30" as="geometry" />
        </mxCell>
        <mxCell id="NFUYtC_mD7zzvTQgRDWZ-151" style="rounded=0;orthogonalLoop=1;jettySize=auto;html=1;exitX=1;exitY=0.5;exitDx=0;exitDy=0;dashed=1;dashPattern=8 8;endArrow=none;endFill=0;strokeColor=default;" edge="1" parent="WIyWlLk6GJQsqaUBKTNV-1" source="NFUYtC_mD7zzvTQgRDWZ-152" target="NFUYtC_mD7zzvTQgRDWZ-155">
          <mxGeometry relative="1" as="geometry" />
        </mxCell>
        <mxCell id="NFUYtC_mD7zzvTQgRDWZ-152" value="用户ID" style="ellipse;whiteSpace=wrap;html=1;dashed=1;" vertex="1" parent="WIyWlLk6GJQsqaUBKTNV-1">
          <mxGeometry x="220" y="1790" width="80" height="30" as="geometry" />
        </mxCell>
        <mxCell id="NFUYtC_mD7zzvTQgRDWZ-153" value="n" style="edgeStyle=orthogonalEdgeStyle;curved=1;rounded=0;orthogonalLoop=1;jettySize=auto;html=1;exitX=1;exitY=0.5;exitDx=0;exitDy=0;dashed=1;dashPattern=8 8;endArrow=none;endFill=0;" edge="1" parent="WIyWlLk6GJQsqaUBKTNV-1" source="NFUYtC_mD7zzvTQgRDWZ-155" target="NFUYtC_mD7zzvTQgRDWZ-172">
          <mxGeometry relative="1" as="geometry" />
        </mxCell>
        <mxCell id="NFUYtC_mD7zzvTQgRDWZ-154" value="1" style="edgeLabel;html=1;align=center;verticalAlign=middle;resizable=0;points=[];" vertex="1" connectable="0" parent="NFUYtC_mD7zzvTQgRDWZ-153">
          <mxGeometry x="0.32" y="4" relative="1" as="geometry">
            <mxPoint y="1" as="offset" />
          </mxGeometry>
        </mxCell>
        <mxCell id="NFUYtC_mD7zzvTQgRDWZ-155" value="用户" style="rounded=0;whiteSpace=wrap;html=1;dashed=1;" vertex="1" parent="WIyWlLk6GJQsqaUBKTNV-1">
          <mxGeometry x="220" y="1900" width="100" height="40" as="geometry" />
        </mxCell>
        <mxCell id="NFUYtC_mD7zzvTQgRDWZ-156" style="rounded=0;orthogonalLoop=1;jettySize=auto;html=1;exitX=1;exitY=0.5;exitDx=0;exitDy=0;entryX=0.13;entryY=-0.087;entryDx=0;entryDy=0;entryPerimeter=0;dashed=1;dashPattern=8 8;endArrow=none;endFill=0;" edge="1" parent="WIyWlLk6GJQsqaUBKTNV-1" source="NFUYtC_mD7zzvTQgRDWZ-157" target="NFUYtC_mD7zzvTQgRDWZ-155">
          <mxGeometry relative="1" as="geometry" />
        </mxCell>
        <mxCell id="NFUYtC_mD7zzvTQgRDWZ-157" value="姓名" style="ellipse;whiteSpace=wrap;html=1;dashed=1;" vertex="1" parent="WIyWlLk6GJQsqaUBKTNV-1">
          <mxGeometry x="130" y="1820" width="80" height="30" as="geometry" />
        </mxCell>
        <mxCell id="NFUYtC_mD7zzvTQgRDWZ-158" style="edgeStyle=orthogonalEdgeStyle;curved=1;rounded=0;orthogonalLoop=1;jettySize=auto;html=1;exitX=1;exitY=0.5;exitDx=0;exitDy=0;entryX=0;entryY=0.5;entryDx=0;entryDy=0;dashed=1;dashPattern=8 8;endArrow=none;endFill=0;" edge="1" parent="WIyWlLk6GJQsqaUBKTNV-1" source="NFUYtC_mD7zzvTQgRDWZ-159" target="NFUYtC_mD7zzvTQgRDWZ-155">
          <mxGeometry relative="1" as="geometry" />
        </mxCell>
        <mxCell id="NFUYtC_mD7zzvTQgRDWZ-159" value="性别" style="ellipse;whiteSpace=wrap;html=1;dashed=1;" vertex="1" parent="WIyWlLk6GJQsqaUBKTNV-1">
          <mxGeometry x="110" y="1900" width="80" height="30" as="geometry" />
        </mxCell>
        <mxCell id="NFUYtC_mD7zzvTQgRDWZ-160" style="rounded=0;orthogonalLoop=1;jettySize=auto;html=1;exitX=1;exitY=0;exitDx=0;exitDy=0;dashed=1;dashPattern=8 8;endArrow=none;endFill=0;" edge="1" parent="WIyWlLk6GJQsqaUBKTNV-1" source="NFUYtC_mD7zzvTQgRDWZ-161" target="NFUYtC_mD7zzvTQgRDWZ-155">
          <mxGeometry relative="1" as="geometry" />
        </mxCell>
        <mxCell id="NFUYtC_mD7zzvTQgRDWZ-161" value="年龄" style="ellipse;whiteSpace=wrap;html=1;dashed=1;" vertex="1" parent="WIyWlLk6GJQsqaUBKTNV-1">
          <mxGeometry x="110" y="1980" width="80" height="30" as="geometry" />
        </mxCell>
        <mxCell id="NFUYtC_mD7zzvTQgRDWZ-162" style="rounded=0;orthogonalLoop=1;jettySize=auto;html=1;exitX=0.5;exitY=0;exitDx=0;exitDy=0;entryX=0.5;entryY=1;entryDx=0;entryDy=0;dashed=1;dashPattern=8 8;endArrow=none;endFill=0;" edge="1" parent="WIyWlLk6GJQsqaUBKTNV-1" source="NFUYtC_mD7zzvTQgRDWZ-163" target="NFUYtC_mD7zzvTQgRDWZ-155">
          <mxGeometry relative="1" as="geometry" />
        </mxCell>
        <mxCell id="NFUYtC_mD7zzvTQgRDWZ-163" value="昵称" style="ellipse;whiteSpace=wrap;html=1;dashed=1;" vertex="1" parent="WIyWlLk6GJQsqaUBKTNV-1">
          <mxGeometry x="190" y="2020" width="80" height="30" as="geometry" />
        </mxCell>
        <mxCell id="NFUYtC_mD7zzvTQgRDWZ-164" value="1&lt;br&gt;" style="edgeStyle=orthogonalEdgeStyle;curved=1;rounded=0;orthogonalLoop=1;jettySize=auto;html=1;exitX=0;exitY=0.5;exitDx=0;exitDy=0;entryX=0.94;entryY=0.475;entryDx=0;entryDy=0;entryPerimeter=0;dashed=1;dashPattern=8 8;endArrow=none;endFill=0;" edge="1" parent="WIyWlLk6GJQsqaUBKTNV-1" source="NFUYtC_mD7zzvTQgRDWZ-170" target="NFUYtC_mD7zzvTQgRDWZ-172">
          <mxGeometry relative="1" as="geometry" />
        </mxCell>
        <mxCell id="NFUYtC_mD7zzvTQgRDWZ-165" style="edgeStyle=none;rounded=0;orthogonalLoop=1;jettySize=auto;html=1;exitX=0.5;exitY=0;exitDx=0;exitDy=0;dashed=1;dashPattern=8 8;strokeColor=default;endArrow=none;endFill=0;" edge="1" parent="WIyWlLk6GJQsqaUBKTNV-1" source="NFUYtC_mD7zzvTQgRDWZ-170" target="NFUYtC_mD7zzvTQgRDWZ-171">
          <mxGeometry relative="1" as="geometry" />
        </mxCell>
        <mxCell id="NFUYtC_mD7zzvTQgRDWZ-166" style="edgeStyle=none;rounded=0;orthogonalLoop=1;jettySize=auto;html=1;exitX=1;exitY=0;exitDx=0;exitDy=0;dashed=1;dashPattern=8 8;strokeColor=default;endArrow=none;endFill=0;" edge="1" parent="WIyWlLk6GJQsqaUBKTNV-1" source="NFUYtC_mD7zzvTQgRDWZ-170" target="NFUYtC_mD7zzvTQgRDWZ-173">
          <mxGeometry relative="1" as="geometry" />
        </mxCell>
        <mxCell id="NFUYtC_mD7zzvTQgRDWZ-167" style="edgeStyle=none;rounded=0;orthogonalLoop=1;jettySize=auto;html=1;exitX=1;exitY=0.5;exitDx=0;exitDy=0;entryX=0;entryY=0.5;entryDx=0;entryDy=0;dashed=1;dashPattern=8 8;strokeColor=default;endArrow=none;endFill=0;" edge="1" parent="WIyWlLk6GJQsqaUBKTNV-1" source="NFUYtC_mD7zzvTQgRDWZ-170" target="NFUYtC_mD7zzvTQgRDWZ-174">
          <mxGeometry relative="1" as="geometry" />
        </mxCell>
        <mxCell id="NFUYtC_mD7zzvTQgRDWZ-168" style="edgeStyle=none;rounded=0;orthogonalLoop=1;jettySize=auto;html=1;exitX=1;exitY=1;exitDx=0;exitDy=0;dashed=1;dashPattern=8 8;strokeColor=default;endArrow=none;endFill=0;" edge="1" parent="WIyWlLk6GJQsqaUBKTNV-1" source="NFUYtC_mD7zzvTQgRDWZ-170" target="NFUYtC_mD7zzvTQgRDWZ-176">
          <mxGeometry relative="1" as="geometry" />
        </mxCell>
        <mxCell id="NFUYtC_mD7zzvTQgRDWZ-170" value="部门" style="rounded=0;whiteSpace=wrap;html=1;dashed=1;" vertex="1" parent="WIyWlLk6GJQsqaUBKTNV-1">
          <mxGeometry x="480" y="1900" width="100" height="40" as="geometry" />
        </mxCell>
        <mxCell id="NFUYtC_mD7zzvTQgRDWZ-171" value="部门ID" style="ellipse;whiteSpace=wrap;html=1;dashed=1;" vertex="1" parent="WIyWlLk6GJQsqaUBKTNV-1">
          <mxGeometry x="540" y="1790" width="80" height="30" as="geometry" />
        </mxCell>
        <mxCell id="NFUYtC_mD7zzvTQgRDWZ-172" value="属于" style="rhombus;whiteSpace=wrap;html=1;dashed=1;" vertex="1" parent="WIyWlLk6GJQsqaUBKTNV-1">
          <mxGeometry x="350" y="1890" width="100" height="60" as="geometry" />
        </mxCell>
        <mxCell id="NFUYtC_mD7zzvTQgRDWZ-173" value="名称" style="ellipse;whiteSpace=wrap;html=1;dashed=1;" vertex="1" parent="WIyWlLk6GJQsqaUBKTNV-1">
          <mxGeometry x="600" y="1840" width="80" height="30" as="geometry" />
        </mxCell>
        <mxCell id="NFUYtC_mD7zzvTQgRDWZ-174" value="编号" style="ellipse;whiteSpace=wrap;html=1;dashed=1;" vertex="1" parent="WIyWlLk6GJQsqaUBKTNV-1">
          <mxGeometry x="620" y="1905" width="80" height="30" as="geometry" />
        </mxCell>
        <mxCell id="NFUYtC_mD7zzvTQgRDWZ-176" value="等级" style="ellipse;whiteSpace=wrap;html=1;dashed=1;" vertex="1" parent="WIyWlLk6GJQsqaUBKTNV-1">
          <mxGeometry x="600" y="1960" width="80" height="30" as="geometry" />
        </mxCell>
      </root>
    </mxGraphModel>
  </diagram>
</mxfile>
